<?xml version="1.0" encoding="UTF-8" standalone="no"?>
<!-- Created with Inkscape (http://www.inkscape.org/) -->

<svg
   xmlns:dc="http://purl.org/dc/elements/1.1/"
   xmlns:cc="http://creativecommons.org/ns#"
   xmlns:rdf="http://www.w3.org/1999/02/22-rdf-syntax-ns#"
   xmlns:svg="http://www.w3.org/2000/svg"
   xmlns="http://www.w3.org/2000/svg"
   xmlns:sodipodi="http://sodipodi.sourceforge.net/DTD/sodipodi-0.dtd"
   xmlns:inkscape="http://www.inkscape.org/namespaces/inkscape"
   id="svg4817"
   version="1.1"
   inkscape:version="0.91 r13725"
   xml:space="preserve"
   width="743.75"
   height="1052.5"
   viewBox="0 0 743.75 1052.5"
   sodipodi:docname="b_ng_18_001V.svg"><metadata
     id="metadata4823"><rdf:RDF><cc:Work
         rdf:about=""><dc:format>image/svg+xml</dc:format><dc:type
           rdf:resource="http://purl.org/dc/dcmitype/StillImage" /><dc:title /></cc:Work></rdf:RDF></metadata><defs
     id="defs4821"><marker
       inkscape:stockid="Arrow2Mend"
       orient="auto"
       refY="0"
       refX="0"
       id="Arrow2Mend"
       style="overflow:visible"
       inkscape:isstock="true"><path
         inkscape:connector-curvature="0"
         id="path13624"
         style="fill:#0000ff;fill-opacity:1;fill-rule:evenodd;stroke:#0000ff;stroke-width:0.625;stroke-linejoin:round;stroke-opacity:1"
         d="M 8.7185878,4.0337352 -2.2072895,0.01601326 8.7185884,-4.0017078 c -1.7454984,2.3720609 -1.7354408,5.6174519 -6e-7,8.035443 z"
         transform="scale(-0.6,-0.6)" /></marker></defs><sodipodi:namedview
     pagecolor="#ffffff"
     bordercolor="#666666"
     borderopacity="1"
     objecttolerance="10"
     gridtolerance="10"
     guidetolerance="10"
     inkscape:pageopacity="0"
     inkscape:pageshadow="2"
     inkscape:window-width="1280"
     inkscape:window-height="666"
     id="namedview4819"
     showgrid="false"
     inkscape:zoom="1.3812936"
     inkscape:cx="535.35985"
     inkscape:cy="362.63342"
     inkscape:window-x="-8"
     inkscape:window-y="-8"
     inkscape:window-maximized="1"
     inkscape:current-layer="layer1" /><g
     id="g4825"
     inkscape:groupmode="layer"
     inkscape:label="ink_ext_XXXXXX"
     transform="matrix(1.25,0,0,-1.25,0,1052.5)"
     sodipodi:insensitive="true"><g
       id="g4827"
       transform="scale(0.1,0.1)"><path
         d="m 0,0 5760,0 0,4320 L 0,4320 0,0 Z"
         style="fill:#ffffff;fill-opacity:1;fill-rule:nonzero;stroke:none"
         id="path4829"
         inkscape:connector-curvature="0" /><path
         d="m 0,0 5760,0 0,4320 L 0,4320 0,0 Z"
         style="fill:#ffffff;fill-opacity:1;fill-rule:nonzero;stroke:none"
         id="path4831"
         inkscape:connector-curvature="0" /><path
         d="m 750,555 4462.5,0 0,3442.5 -4462.5,0 0,-3442.5 z"
         style="fill:#ffffff;fill-opacity:1;fill-rule:nonzero;stroke:none"
         id="path4833"
         inkscape:connector-curvature="0" /><g
         id="g4835"
         transform="scale(10,10)"><text
           transform="matrix(1,0,0,-1,270,4.25)"
           style="font-variant:normal;font-weight:normal;font-size:21.75px;font-family:Helvetica;-inkscape-font-specification:Helvetica;writing-mode:lr-tb;fill:#262626;fill-opacity:1;fill-rule:nonzero;stroke:none"
           id="text4837"><tspan
             x="0 10.875 18.11775 30.210751 48.328499"
             y="0"
             sodipodi:role="line"
             id="tspan4839">x(nm)</tspan></text>
</g><path
         d="m 750,555 4462.5,0"
         style="fill:none;stroke:#262626;stroke-width:15;stroke-linecap:square;stroke-linejoin:miter;stroke-miterlimit:10;stroke-dasharray:none;stroke-opacity:1"
         id="path4841"
         inkscape:connector-curvature="0" /><path
         d="m 750,3997.5 4462.5,0"
         style="fill:none;stroke:#262626;stroke-width:15;stroke-linecap:square;stroke-linejoin:miter;stroke-miterlimit:10;stroke-dasharray:none;stroke-opacity:1"
         id="path4843"
         inkscape:connector-curvature="0" /><path
         d="m 835.816,555 0,89.25"
         style="fill:none;stroke:#262626;stroke-width:15;stroke-linecap:square;stroke-linejoin:miter;stroke-miterlimit:10;stroke-dasharray:none;stroke-opacity:1"
         id="path4845"
         inkscape:connector-curvature="0" /><path
         d="m 1693.99,555 0,89.25"
         style="fill:none;stroke:#262626;stroke-width:15;stroke-linecap:square;stroke-linejoin:miter;stroke-miterlimit:10;stroke-dasharray:none;stroke-opacity:1"
         id="path4847"
         inkscape:connector-curvature="0" /><path
         d="m 2552.16,555 0,89.25"
         style="fill:none;stroke:#262626;stroke-width:15;stroke-linecap:square;stroke-linejoin:miter;stroke-miterlimit:10;stroke-dasharray:none;stroke-opacity:1"
         id="path4849"
         inkscape:connector-curvature="0" /><path
         d="m 3410.34,555 0,89.25"
         style="fill:none;stroke:#262626;stroke-width:15;stroke-linecap:square;stroke-linejoin:miter;stroke-miterlimit:10;stroke-dasharray:none;stroke-opacity:1"
         id="path4851"
         inkscape:connector-curvature="0" /><path
         d="m 4268.51,555 0,89.25"
         style="fill:none;stroke:#262626;stroke-width:15;stroke-linecap:square;stroke-linejoin:miter;stroke-miterlimit:10;stroke-dasharray:none;stroke-opacity:1"
         id="path4853"
         inkscape:connector-curvature="0" /><path
         d="m 5126.68,555 0,89.25"
         style="fill:none;stroke:#262626;stroke-width:15;stroke-linecap:square;stroke-linejoin:miter;stroke-miterlimit:10;stroke-dasharray:none;stroke-opacity:1"
         id="path4855"
         inkscape:connector-curvature="0" /><path
         d="m 835.816,3997.5 0,-89.25"
         style="fill:none;stroke:#262626;stroke-width:15;stroke-linecap:square;stroke-linejoin:miter;stroke-miterlimit:10;stroke-dasharray:none;stroke-opacity:1"
         id="path4857"
         inkscape:connector-curvature="0" /><path
         d="m 1693.99,3997.5 0,-89.25"
         style="fill:none;stroke:#262626;stroke-width:15;stroke-linecap:square;stroke-linejoin:miter;stroke-miterlimit:10;stroke-dasharray:none;stroke-opacity:1"
         id="path4859"
         inkscape:connector-curvature="0" /><path
         d="m 2552.16,3997.5 0,-89.25"
         style="fill:none;stroke:#262626;stroke-width:15;stroke-linecap:square;stroke-linejoin:miter;stroke-miterlimit:10;stroke-dasharray:none;stroke-opacity:1"
         id="path4861"
         inkscape:connector-curvature="0" /><path
         d="m 3410.34,3997.5 0,-89.25"
         style="fill:none;stroke:#262626;stroke-width:15;stroke-linecap:square;stroke-linejoin:miter;stroke-miterlimit:10;stroke-dasharray:none;stroke-opacity:1"
         id="path4863"
         inkscape:connector-curvature="0" /><path
         d="m 4268.51,3997.5 0,-89.25"
         style="fill:none;stroke:#262626;stroke-width:15;stroke-linecap:square;stroke-linejoin:miter;stroke-miterlimit:10;stroke-dasharray:none;stroke-opacity:1"
         id="path4865"
         inkscape:connector-curvature="0" /><path
         d="m 5126.68,3997.5 0,-89.25"
         style="fill:none;stroke:#262626;stroke-width:15;stroke-linecap:square;stroke-linejoin:miter;stroke-miterlimit:10;stroke-dasharray:none;stroke-opacity:1"
         id="path4867"
         inkscape:connector-curvature="0" /><g
         id="g4869"
         transform="scale(10,10)"><text
           transform="matrix(1,0,0,-1,77.5816,30.75)"
           style="font-variant:normal;font-weight:normal;font-size:20.25px;font-family:Helvetica;-inkscape-font-specification:Helvetica;writing-mode:lr-tb;fill:#262626;fill-opacity:1;fill-rule:nonzero;stroke:none"
           id="text4871"><tspan
             x="0 74.567589 85.826584 97.085587 160.38486 171.64386 182.90286 246.20213 257.46112 268.72012 332.01981 343.27881 354.53781 417.8371 429.09607 440.35507"
             y="0"
             sodipodi:role="line"
             id="tspan4873">0100200300400500</tspan></text>
<text
           transform="matrix(0,1,1,0,26.25,199.5)"
           style="font-variant:normal;font-weight:normal;font-size:21.75px;font-family:Helvetica;-inkscape-font-specification:Helvetica;writing-mode:lr-tb;fill:#262626;fill-opacity:1;fill-rule:nonzero;stroke:none"
           id="text4875"><tspan
             x="0 14.50725 21.75 33.842999 48.35025"
             y="0"
             sodipodi:role="line"
             id="tspan4877">E(eV)</tspan></text>
</g><path
         d="m 750,555 0,3442.5"
         style="fill:none;stroke:#262626;stroke-width:15;stroke-linecap:square;stroke-linejoin:miter;stroke-miterlimit:10;stroke-dasharray:none;stroke-opacity:1"
         id="path4879"
         inkscape:connector-curvature="0" /><path
         d="m 5212.5,555 0,3442.5"
         style="fill:none;stroke:#262626;stroke-width:15;stroke-linecap:square;stroke-linejoin:miter;stroke-miterlimit:10;stroke-dasharray:none;stroke-opacity:1"
         id="path4881"
         inkscape:connector-curvature="0" /><path
         d="m 750,867.953 89.25,0"
         style="fill:none;stroke:#262626;stroke-width:15;stroke-linecap:square;stroke-linejoin:miter;stroke-miterlimit:10;stroke-dasharray:none;stroke-opacity:1"
         id="path4883"
         inkscape:connector-curvature="0" /><path
         d="m 750,1650.34 89.25,0"
         style="fill:none;stroke:#262626;stroke-width:15;stroke-linecap:square;stroke-linejoin:miter;stroke-miterlimit:10;stroke-dasharray:none;stroke-opacity:1"
         id="path4885"
         inkscape:connector-curvature="0" /><path
         d="m 750,2432.73 89.25,0"
         style="fill:none;stroke:#262626;stroke-width:15;stroke-linecap:square;stroke-linejoin:miter;stroke-miterlimit:10;stroke-dasharray:none;stroke-opacity:1"
         id="path4887"
         inkscape:connector-curvature="0" /><path
         d="m 750,3215.11 89.25,0"
         style="fill:none;stroke:#262626;stroke-width:15;stroke-linecap:square;stroke-linejoin:miter;stroke-miterlimit:10;stroke-dasharray:none;stroke-opacity:1"
         id="path4889"
         inkscape:connector-curvature="0" /><path
         d="m 750,3997.5 89.25,0"
         style="fill:none;stroke:#262626;stroke-width:15;stroke-linecap:square;stroke-linejoin:miter;stroke-miterlimit:10;stroke-dasharray:none;stroke-opacity:1"
         id="path4891"
         inkscape:connector-curvature="0" /><path
         d="m 5212.5,867.953 -89.25,0"
         style="fill:none;stroke:#262626;stroke-width:15;stroke-linecap:square;stroke-linejoin:miter;stroke-miterlimit:10;stroke-dasharray:none;stroke-opacity:1"
         id="path4893"
         inkscape:connector-curvature="0" /><path
         d="m 5212.5,1650.34 -89.25,0"
         style="fill:none;stroke:#262626;stroke-width:15;stroke-linecap:square;stroke-linejoin:miter;stroke-miterlimit:10;stroke-dasharray:none;stroke-opacity:1"
         id="path4895"
         inkscape:connector-curvature="0" /><path
         d="m 5212.5,2432.73 -89.25,0"
         style="fill:none;stroke:#262626;stroke-width:15;stroke-linecap:square;stroke-linejoin:miter;stroke-miterlimit:10;stroke-dasharray:none;stroke-opacity:1"
         id="path4897"
         inkscape:connector-curvature="0" /><path
         d="m 5212.5,3215.11 -89.25,0"
         style="fill:none;stroke:#262626;stroke-width:15;stroke-linecap:square;stroke-linejoin:miter;stroke-miterlimit:10;stroke-dasharray:none;stroke-opacity:1"
         id="path4899"
         inkscape:connector-curvature="0" /><path
         d="m 5212.5,3997.5 -89.25,0"
         style="fill:none;stroke:#262626;stroke-width:15;stroke-linecap:square;stroke-linejoin:miter;stroke-miterlimit:10;stroke-dasharray:none;stroke-opacity:1"
         id="path4901"
         inkscape:connector-curvature="0" /><g
         id="g4903"
         transform="scale(10,10)"><text
           transform="matrix(1,0,0,-1,33.75,79.6703)"
           style="font-variant:normal;font-weight:normal;font-size:20.25px;font-family:Helvetica;-inkscape-font-specification:Helvetica;writing-mode:lr-tb;fill:#262626;fill-opacity:1;fill-rule:nonzero;stroke:none"
           id="text4905"><tspan
             x="0 6.7432499 18.002251 23.63175"
             y="0"
             sodipodi:role="line"
             id="tspan4907">-0.5</tspan><tspan
             x="23.25"
             y="-78.238701"
             id="tspan4909">0</tspan><tspan
             x="6.75 18.009001 23.6385"
             y="-156.4774"
             sodipodi:role="line"
             id="tspan4911">0.5</tspan><tspan
             x="23.25"
             y="-234.71609"
             id="tspan4913">1</tspan><tspan
             x="6.75 18.009001 23.6385"
             y="-312.9548"
             sodipodi:role="line"
             id="tspan4915">1.5</tspan></text>
</g><path
         d="m 835.816,2399.14 0.434,12.27 0.48,6.31 0.547,2.81 0.614,0.89 0.699,-0.09 0.789,-0.6 0.891,-0.91 0.996,-1.14 1.14,-1.37 1.278,-1.6 1.437,-1.85 1.637,-2.13 1.836,-2.44 2.078,-2.8 2.348,-3.19 2.648,-3.65 2.992,-4.17 3.375,-4.76 3.809,-5.45 4.297,-6.25 4.293,-6.34 4.289,-6.43 4.297,-6.5 4.289,-6.57 4.293,-6.58 4.289,-6.58 4.289,-6.54 4.289,-6.45 4.293,-6.3 4.504,-6.41 4.742,-6.46 4.98,-6.43 5.227,-6.31 5.488,-6.1 5.777,-5.83 6.067,-5.48 6.367,-5.08 6.699,-4.64 7.035,-4.16 7.395,-3.7 7.762,-3.22 8.16,-2.78 8.574,-2.36 9.011,-1.96 9.46,-1.6 9.95,-1.29 10.44,-1.01 10.98,-0.76 11.54,-0.55"
         style="fill:none;stroke:#000000;stroke-width:20.00250053;stroke-linecap:butt;stroke-linejoin:bevel;stroke-miterlimit:10;stroke-dasharray:none;stroke-opacity:1"
         id="path4917"
         inkscape:connector-curvature="0" /><path
         d="m 1058.92,2244.6 12.12,-0.37 12.73,-0.24 13.37,-0.1 14.06,0 14.77,0.08 15.51,0.14 16.31,0.21 17.13,0.24 18,0.29 18.91,0.31 19.87,0.34 20.87,0.37 21.93,0.39 23.05,0.42 24.22,0.43 25.44,0.46 26.73,0.49 28.08,0.51 29.51,0.54 31.01,0.56 32.57,0.59 34.23,0.62 35.96,0.65 37.78,0.69 39.71,0.72 41.7,0.76 43.83,0.79 43.82,0.8 41.71,0.76 39.7,0.72 37.79,0.68 35.96,0.65 34.22,0.62 32.58,0.59 31.01,0.56 29.5,0.54 28.09,0.5 26.73,0.49 25.44,0.46 24.21,0.44 23.05,0.42 21.93,0.4 20.87,0.37 19.87,0.36 18.92,0.35 17.99,0.32 17.13,0.31 16.3,0.3 15.52,0.28"
         style="fill:none;stroke:#000000;stroke-width:20.00250053;stroke-linecap:butt;stroke-linejoin:bevel;stroke-miterlimit:10;stroke-dasharray:none;stroke-opacity:1"
         id="path4919"
         inkscape:connector-curvature="0" /><path
         d="m 2330.66,2265.41 14.77,0.27 14.06,0.25 13.37,0.24 12.74,0.23 12.12,0.22 11.53,0.21 10.98,0.19 10.45,0.2 9.94,0.18 9.47,0.17 9,0.16 8.57,0.16 8.16,0.14 7.77,0.14 7.39,0.14 7.04,0.12 6.69,0.12 6.38,0.13 6.07,0.1 5.77,0.11 5.49,0.09 5.23,0.1 4.98,0.09 4.73,0.08 4.51,0.09 4.29,0.08 4.3,0.07 4.42,0.08 4.58,0.09 4.72,0.08 4.86,0.09 5.03,0.09 5.19,0.09 5.35,0.1 5.52,0.1 5.71,0.1 5.89,0.11 6.07,0.11 6.27,0.11 6.48,0.12 6.68,0.12 6.89,0.13 7.12,0.13 7.34,0.13 7.58,0.14 7.82,0.14 8.08,0.14 8.34,0.15 8.6,0.16"
         style="fill:none;stroke:#000000;stroke-width:20.00250053;stroke-linecap:butt;stroke-linejoin:bevel;stroke-miterlimit:10;stroke-dasharray:none;stroke-opacity:1"
         id="path4921"
         inkscape:connector-curvature="0" /><path
         d="m 2695,2272 8.89,0.16 9.16,0.17 9.46,0.17 9.76,0.17 10.07,0.18 10.41,0.2 10.73,0.18 11.09,0.21 11.43,0.21 11.8,0.21 12.19,0.22 12.57,0.23 12.97,0.23 13.4,0.25 13.83,0.25 14.26,0.25 14.73,0.27 15.21,0.27 15.68,0.28 16.2,0.3 16.71,0.3 17.25,0.31 17.8,0.32 18.38,0.34 18.97,0.34 19.57,0.36 20.21,0.36 20.85,0.38 21.53,0.39 22.21,0.4 22.93,0.42 23.66,0.43 24.43,0.44 25.21,0.45 26.02,0.47 26.86,0.49 27.72,0.5 28.61,0.52 29.53,0.53 30.48,0.56 31.46,0.57 32.46,0.58 33.51,0.61 34.59,0.63 35.69,0.64 36.85,0.67 38.03,0.69 39.25,0.71 40.52,0.74"
         style="fill:none;stroke:#000000;stroke-width:20.00250053;stroke-linecap:butt;stroke-linejoin:bevel;stroke-miterlimit:10;stroke-dasharray:none;stroke-opacity:1"
         id="path4923"
         inkscape:connector-curvature="0" /><path
         d="m 3720.13,2290.56 41.81,0.76 43.15,0.79 43.16,0.78 41.81,0.76 40.52,0.74 39.25,0.71 38.03,0.7 36.85,0.66 35.7,0.66 34.58,0.63 33.51,0.61 32.46,0.59 31.47,0.57 30.47,0.57 29.53,0.54 28.61,0.52 27.72,0.5 26.86,0.5 26.02,0.48 25.21,0.46 24.43,0.45 23.66,0.43 22.94,0.43 22.21,0.4 21.53,0.4 20.84,0.38 20.21,0.38 19.58,0.36 18.96,0.36 18.38,0.34 17.8,0.33 17.25,0.33 16.72,0.31 16.19,0.31 15.69,0.3 15.2,0.3 14.73,0.29 14.27,0.29 13.82,0.29 13.4,0.3 12.97,0.31 12.58,0.33 12.18,0.35 11.81,0.37 11.43,0.41 11.08,0.46 10.73,0.52 10.4,0.6 10.09,0.7"
         style="fill:none;stroke:#000000;stroke-width:20.00250053;stroke-linecap:butt;stroke-linejoin:bevel;stroke-miterlimit:10;stroke-dasharray:none;stroke-opacity:1"
         id="path4925"
         inkscape:connector-curvature="0" /><path
         d="m 4877.93,2314.12 9.75,0.81 9.47,0.96 9.16,1.11 8.88,1.32 8.61,1.56 8.33,1.82 8.07,2.13 7.83,2.49 7.58,2.89 7.34,3.34 7.12,3.84 6.9,4.38 6.67,4.99 6.48,5.64 6.27,6.33 6.08,7.05 5.89,7.8 5.7,8.56 5.53,9.3 5.35,10.03 5.18,10.71 5.03,11.34 4.87,11.87 4.72,12.37 4.57,12.78 4.43,13.15 4.29,13.54 4.29,14.47 5,18.51 5.01,21.39 5.01,27.32 5,44.79 5.01,113.63 5.01,125.27 4.3,114.8 3.8,105.91 3.38,98.93 2.99,91.76 2.65,80.52 2.35,72.13 2.08,64.59 1.83,57.93 1.64,51.68 1.44,46.57 1.28,41.34 1.13,37.5 1,32.68 0.89,29.56 0.79,24.41"
         style="fill:none;stroke:#000000;stroke-width:20.00250053;stroke-linecap:butt;stroke-linejoin:bevel;stroke-miterlimit:10;stroke-dasharray:none;stroke-opacity:1"
         id="path4927"
         inkscape:connector-curvature="0" /><path
         d="m 5123.91,3801.92 0.7,21.51 0.61,22.39 0.55,27.33 0.48,37.31 0.43,53.46"
         style="fill:none;stroke:#000000;stroke-width:20.00250053;stroke-linecap:butt;stroke-linejoin:bevel;stroke-miterlimit:10;stroke-dasharray:none;stroke-opacity:1"
         id="path4929"
         inkscape:connector-curvature="0" /><path
         d="m 835.816,2458.36 0.434,0.02 0.48,0.02 0.547,0.03 0.614,0.04 0.699,0.04 0.789,0.04 0.891,0.05 0.996,0.05 1.14,0.06 1.278,0.07 1.437,0.07 1.637,0.08 1.836,0.09 2.078,0.09 2.348,0.11 2.648,0.11 2.992,0.12 3.375,0.14 3.809,0.16 4.297,0.16 4.293,0.16 4.289,0.16 4.297,0.16 4.289,0.15 4.293,0.14 4.289,0.14 4.289,0.14 4.289,0.13 4.293,0.13 4.504,0.13 4.742,0.13 4.98,0.13 5.227,0.14 5.488,0.15 5.777,0.14 6.067,0.15 6.367,0.15 6.699,0.16 7.035,0.16 7.395,0.17 7.762,0.17 8.16,0.19 8.574,0.19 9.011,0.19 9.46,0.2 9.95,0.22 10.44,0.22 10.98,0.24 11.54,0.25 12.12,0.25 12.73,0.27 13.37,0.28 14.06,0.3 14.77,0.31 15.51,0.33 16.31,0.35 17.13,0.36 18,0.38 18.91,0.4 19.87,0.42 20.87,0.44 21.93,0.46 23.05,0.48 24.22,0.52 25.44,0.54 26.73,0.56 28.08,0.59 29.51,0.61 31.01,0.66 32.57,0.69 34.23,0.72 35.96,0.76 37.78,0.79 39.71,0.83 41.7,0.88 43.83,0.92 43.82,0.92 41.71,0.87 39.7,0.84 37.79,0.78 35.96,0.76 34.22,0.71 32.58,0.69 31.01,0.65 29.5,0.62 28.09,0.59 26.73,0.55 25.44,0.54 24.21,0.5 23.05,0.48 21.93,0.46 20.87,0.44 19.87,0.42 18.92,0.39 17.99,0.38 17.13,0.35 16.3,0.35 15.52,0.32 14.77,0.31 14.06,0.29 13.37,0.28 12.74,0.27 12.12,0.24 11.53,0.25 10.98,0.23 10.45,0.22 9.94,0.21 9.47,0.19 9,0.19 8.57,0.18 8.16,0.17 7.77,0.16 7.39,0.15 7.04,0.15 6.69,0.14 6.38,0.14 6.07,0.12 5.77,0.12 5.49,0.12 5.23,0.1 4.98,0.11 4.73,0.09 4.51,0.1 4.29,0.09 4.3,0.09 4.42,0.09 4.58,0.1 4.72,0.1 4.86,0.09 5.03,0.11 5.19,0.11 5.35,0.11 5.52,0.12 5.71,0.12 5.89,0.11 6.07,0.13 6.27,0.13 6.48,0.13 6.68,0.15 6.89,0.14 7.12,0.15 7.34,0.15 7.58,0.16 7.82,0.16 8.08,0.17 8.34,0.18 8.6,0.17 8.89,0.19 9.16,0.19 9.46,0.2 9.76,0.2 10.07,0.21 10.41,0.22 10.73,0.22 11.09,0.23 11.43,0.24 11.8,0.24 12.19,0.25 12.57,0.27 12.97,0.27 13.4,0.27 13.83,0.3 14.26,0.29 14.73,0.3 15.21,0.32 15.68,0.33 16.2,0.33 16.71,0.35 17.25,0.35 17.8,0.38 18.38,0.38 18.97,0.39 19.57,0.41 20.21,0.42 20.85,0.43 21.53,0.45 22.21,0.46 22.93,0.47 23.66,0.5 24.43,0.5 25.21,0.53 26.02,0.54 26.86,0.55 27.72,0.57 28.61,0.59 29.53,0.62 30.48,0.63 31.46,0.65 32.46,0.67 33.51,0.7 34.59,0.71 35.69,0.73 36.85,0.77 38.03,0.78 39.25,0.81 40.52,0.84 41.81,0.86 43.15,0.89 43.16,0.89 41.81,0.86 40.52,0.84 39.25,0.8 38.03,0.79 36.85,0.76 35.7,0.73 34.58,0.72 33.51,0.68 32.46,0.67 31.47,0.65 30.47,0.62 29.53,0.61 28.61,0.59 27.72,0.57 26.86,0.55 26.02,0.54 25.21,0.52 24.43,0.49 23.66,0.49 22.94,0.47 22.21,0.46 21.53,0.44 20.84,0.43 20.21,0.41 19.58,0.4 18.96,0.39 18.38,0.38 17.8,0.36 17.25,0.35 16.72,0.35 16.19,0.33 15.69,0.32 15.2,0.31 14.73,0.3 14.27,0.3 13.82,0.28 13.4,0.27 12.97,0.27 12.58,0.26 12.18,0.25 11.81,0.24 11.43,0.24 11.08,0.22 10.73,0.23 10.4,0.21 10.09,0.21 9.75,0.2 9.47,0.19 9.16,0.19 8.88,0.19 8.61,0.18 8.33,0.17 8.07,0.17 7.83,0.17 7.58,0.16 7.34,0.16 7.12,0.16 6.9,0.15 6.67,0.15 6.48,0.15 6.27,0.15 6.08,0.14 5.89,0.15 5.7,0.15 5.53,0.14 5.35,0.15 5.18,0.16 5.03,0.16 4.87,0.16 4.72,0.17 4.57,0.19 4.43,0.19 4.29,0.22 4.29,0.25 5,0.38 5.01,0.51 5.01,0.93 5,4.36 5.01,109.4 5.01,111.44 4.3,98.12 3.8,80.3 3.38,62.6 2.99,69.34 2.65,4.07 2.35,5.93 2.08,5.46 1.83,4.84 1.64,4.24 1.44,3.69 1.28,3.13 1.13,2.68 1,2.2 0.89,1.83 0.79,1.48 0.7,1.21 0.61,1.02 0.55,0.91 0.48,0.85 0.43,0.86"
         style="fill:none;stroke:#000000;stroke-width:20.00250053;stroke-linecap:butt;stroke-linejoin:bevel;stroke-miterlimit:10;stroke-dasharray:60, 60;stroke-dashoffset:0;stroke-opacity:1"
         id="path4931"
         inkscape:connector-curvature="0" /><path
         d="m 835.816,1650.34 0.434,12.26 0.48,6.31 0.547,2.81 0.614,0.89 0.699,-0.09 0.789,-0.6 0.891,-0.9 0.996,-1.15 1.14,-1.37 1.278,-1.59 1.437,-1.86 1.637,-2.13 1.836,-2.44 2.078,-2.8 2.348,-3.19 2.648,-3.64 2.992,-4.17 3.375,-4.77 3.809,-5.45 4.297,-6.25 4.293,-6.34 4.289,-6.43 4.297,-6.5 4.289,-6.56 4.293,-6.59 4.289,-6.58 4.289,-6.54 4.289,-6.44 4.293,-6.3 4.504,-6.42 4.742,-6.46 4.98,-6.42 5.227,-6.32 5.488,-6.1 5.777,-5.83 6.067,-5.48 6.367,-5.08 6.699,-4.63 7.035,-4.17 7.395,-3.7 7.762,-3.22 8.16,-2.78 8.574,-2.35 9.011,-1.97 9.46,-1.6 9.95,-1.29 10.44,-1 10.98,-0.77 11.54,-0.55"
         style="fill:none;stroke:#ff0000;stroke-width:20.00250053;stroke-linecap:butt;stroke-linejoin:bevel;stroke-miterlimit:10;stroke-dasharray:none;stroke-opacity:1"
         id="path4933"
         inkscape:connector-curvature="0" /><path
         d="m 1058.92,1495.79 12.12,-0.37 12.73,-0.23 13.37,-0.1 14.06,0 14.77,0.07 15.51,0.15 16.31,0.2 17.13,0.24 18,0.29 18.91,0.32 19.87,0.33 20.87,0.37 21.93,0.39 23.05,0.42 24.22,0.43 25.44,0.47 26.73,0.48 28.08,0.51 29.51,0.54 31.01,0.56 32.57,0.6 34.23,0.62 35.96,0.65 37.78,0.68 39.71,0.72 41.7,0.76 43.83,0.79 43.82,0.8 41.71,0.76 39.7,0.72 37.79,0.68 35.96,0.65 34.22,0.62 32.58,0.6 31.01,0.55 29.5,0.54 28.09,0.51 26.73,0.48 25.44,0.47 24.21,0.43 23.05,0.42 21.93,0.4 20.87,0.37 19.87,0.37 18.92,0.34 17.99,0.32 17.13,0.32 16.3,0.29 15.52,0.28"
         style="fill:none;stroke:#ff0000;stroke-width:20.00250053;stroke-linecap:butt;stroke-linejoin:bevel;stroke-miterlimit:10;stroke-dasharray:none;stroke-opacity:1"
         id="path4935"
         inkscape:connector-curvature="0" /><path
         d="m 2330.66,1516.6 14.77,0.27 14.06,0.25 13.37,0.24 12.74,0.23 12.12,0.22 11.53,0.21 10.98,0.2 10.45,0.19 9.94,0.18 9.47,0.18 9,0.15 8.57,0.16 8.16,0.15 7.77,0.13 7.39,0.14 7.04,0.13 6.69,0.12 6.38,0.12 6.07,0.1 5.77,0.11 5.49,0.1 5.23,0.09 4.98,0.09 4.73,0.09 4.51,0.08 4.29,0.08 4.3,0.07 4.42,0.09 4.58,0.08 4.72,0.08 4.86,0.09 5.03,0.09 5.19,0.1 5.35,0.1 5.52,0.1 5.71,0.1 5.89,0.1 6.07,0.12 6.27,0.11 6.48,0.11 6.68,0.12 6.89,0.13 7.12,0.13 7.34,0.13 7.58,0.14 7.82,0.14 8.08,0.15 8.34,0.15 8.6,0.15"
         style="fill:none;stroke:#ff0000;stroke-width:20.00250053;stroke-linecap:butt;stroke-linejoin:bevel;stroke-miterlimit:10;stroke-dasharray:none;stroke-opacity:1"
         id="path4937"
         inkscape:connector-curvature="0" /><path
         d="m 2695,1523.19 8.89,0.17 9.16,0.16 9.46,0.17 9.76,0.17 10.07,0.19 10.41,0.19 10.73,0.19 11.09,0.2 11.43,0.21 11.8,0.21 12.19,0.22 12.57,0.23 12.97,0.23 13.4,0.25 13.83,0.25 14.26,0.25 14.73,0.27 15.21,0.28 15.68,0.29 16.2,0.29 16.71,0.3 17.25,0.3 17.8,0.33 18.38,0.34 18.97,0.34 19.57,0.35 20.21,0.37 20.85,0.38 21.53,0.39 22.21,0.39 22.93,0.42 23.66,0.43 24.43,0.44 25.21,0.46 26.02,0.47 26.86,0.48 27.72,0.5 28.61,0.52 29.53,0.54 30.48,0.55 31.46,0.57 32.46,0.59 33.51,0.61 34.59,0.62 35.69,0.65 36.85,0.67 38.03,0.68 39.25,0.72 40.52,0.73"
         style="fill:none;stroke:#ff0000;stroke-width:20.00250053;stroke-linecap:butt;stroke-linejoin:bevel;stroke-miterlimit:10;stroke-dasharray:none;stroke-opacity:1"
         id="path4939"
         inkscape:connector-curvature="0" /><path
         d="m 3720.13,1541.75 41.81,0.77 43.15,0.78 43.16,0.79 41.81,0.75 40.52,0.74 39.25,0.72 38.03,0.69 36.85,0.67 35.7,0.65 34.58,0.63 33.51,0.61 32.46,0.59 31.47,0.58 30.47,0.56 29.53,0.54 28.61,0.52 27.72,0.51 26.86,0.49 26.02,0.48 25.21,0.47 24.43,0.44 23.66,0.43 22.94,0.43 22.21,0.41 21.53,0.39 20.84,0.39 20.21,0.37 19.58,0.37 18.96,0.35 18.38,0.34 17.8,0.34 17.25,0.32 16.72,0.31 16.19,0.31 15.69,0.3 15.2,0.3 14.73,0.29 14.27,0.3 13.82,0.29 13.4,0.3 12.97,0.31 12.58,0.33 12.18,0.34 11.81,0.37 11.43,0.41 11.08,0.47 10.73,0.51 10.4,0.6 10.09,0.7"
         style="fill:none;stroke:#ff0000;stroke-width:20.00250053;stroke-linecap:butt;stroke-linejoin:bevel;stroke-miterlimit:10;stroke-dasharray:none;stroke-opacity:1"
         id="path4941"
         inkscape:connector-curvature="0" /><path
         d="m 4877.93,1565.31 9.75,0.82 9.47,0.95 9.16,1.12 8.88,1.32 8.61,1.55 8.33,1.82 8.07,2.14 7.83,2.48 7.58,2.89 7.34,3.34 7.12,3.84 6.9,4.38 6.67,5 6.48,5.63 6.27,6.33 6.08,7.05 5.89,7.8 5.7,8.56 5.53,9.3 5.35,10.03 5.18,10.72 5.03,11.33 4.87,11.88 4.72,12.37 4.57,12.77 4.43,13.15 4.29,13.54 4.29,14.47 5,18.52 5.01,21.39 5.01,27.31 5,44.8 5.01,113.63 5.01,125.26 4.3,114.8 3.8,105.91 3.38,98.94 2.99,91.75 2.65,80.52 2.35,72.14 2.08,64.59 1.83,57.92 1.64,51.68 1.44,46.58 1.28,41.34 1.13,37.5 1,32.67 0.89,29.56 0.79,24.41"
         style="fill:none;stroke:#ff0000;stroke-width:20.00250053;stroke-linecap:butt;stroke-linejoin:bevel;stroke-miterlimit:10;stroke-dasharray:none;stroke-opacity:1"
         id="path4943"
         inkscape:connector-curvature="0" /><path
         d="m 5123.91,3053.11 0.7,21.52 0.61,22.38 0.55,27.33 0.48,37.32 0.43,53.45"
         style="fill:none;stroke:#ff0000;stroke-width:20.00250053;stroke-linecap:butt;stroke-linejoin:bevel;stroke-miterlimit:10;stroke-dasharray:none;stroke-opacity:1"
         id="path4945"
         inkscape:connector-curvature="0" /><path
         d="m 835.816,1651.23 6.59,0 1.278,0.01 11.984,0 2.992,0.01 7.184,0 4.297,0 4.293,0 4.289,0.01 4.297,0 4.289,0.01 4.293,0 4.289,0.01 4.289,0.01 4.289,0.01 4.293,0.01 4.504,0.01 4.742,0.02 4.98,0.02 5.227,0.02 5.488,0.03 5.777,0.04 6.067,0.04 6.367,0.06 6.699,0.06 7.035,0.08 7.395,0.08 7.762,0.1 8.16,0.12 8.574,0.12 9.011,0.15 9.46,0.15 9.95,0.18 10.44,0.19 10.98,0.2 11.54,0.23 12.12,0.23 12.73,0.26 13.37,0.27 14.06,0.28 14.77,0.3 15.51,0.32 16.31,0.33 17.13,0.36 18,0.37 18.91,0.39 19.87,0.41 20.87,0.44 21.93,0.46 23.05,0.48 24.22,0.51 25.44,0.53 26.73,0.56 28.08,0.59 29.51,0.63 31.01,0.66 32.57,0.7 34.23,0.72 35.96,0.78 37.78,0.8 39.71,0.87 41.7,0.9 43.83,0.95 43.82,0.96 41.71,0.91 39.7,0.87 37.79,0.84 35.96,0.81 34.22,0.75 32.58,0.74 31.01,0.7 29.5,0.66 28.09,0.63 26.73,0.61 25.44,0.59 24.21,0.55 23.05,0.53 21.93,0.5 20.87,0.49 19.87,0.46 18.92,0.44 17.99,0.42 17.13,0.39 16.3,0.39 15.52,0.36 14.77,0.35 14.06,0.33 13.37,0.32 12.74,0.3 12.12,0.28 11.53,0.28 10.98,0.26 10.45,0.25 9.94,0.24 9.47,0.22 9,0.22 8.57,0.2 8.16,0.2 7.77,0.19 7.39,0.18 7.04,0.16 6.69,0.16 6.38,0.16 6.07,0.15 5.77,0.14 5.49,0.13 5.23,0.12 4.98,0.12 4.73,0.12 4.51,0.11 4.29,0.1 4.3,0.11 4.42,0.11 4.58,0.11 4.72,0.11 4.86,0.13 5.03,0.12 5.19,0.12 5.35,0.14 5.52,0.13 5.71,0.14 5.89,0.15 6.07,0.15 6.27,0.15 6.48,0.15 6.68,0.17 6.89,0.17 7.12,0.18 7.34,0.18 7.58,0.19 7.82,0.2 8.08,0.2 8.34,0.2 8.6,0.22 8.89,0.22 9.16,0.23 9.46,0.24 9.76,0.24 10.07,0.26 10.41,0.26 10.73,0.27 11.09,0.29 11.43,0.28 11.8,0.3 12.19,0.32 12.57,0.32 12.97,0.33 13.4,0.35 13.83,0.36 14.26,0.36 14.73,0.39 15.21,0.39 15.68,0.41 16.2,0.43 16.71,0.45 17.25,0.45 17.8,0.48 18.38,0.48 18.97,0.51 19.57,0.54 20.21,0.54 20.85,0.57 21.53,0.59 22.21,0.61 22.93,0.64 23.66,0.66 24.43,0.68 25.21,0.72 26.02,0.74 26.86,0.78 27.72,0.8 28.61,0.83 29.53,0.88 30.48,0.91 31.46,0.95 32.46,0.99 33.51,1.04 34.59,1.07 35.69,1.14 36.85,1.18 38.03,1.24 39.25,1.3 40.52,1.38 41.81,1.44 43.15,1.52 43.16,1.55 41.81,1.54 40.52,1.53 39.25,1.52 38.03,1.5 36.85,1.5 35.7,1.48 34.58,1.48 33.51,1.47 32.46,1.45 31.47,1.46 30.47,1.45 29.53,1.44 28.61,1.43 27.72,1.43 26.86,1.43 26.02,1.43 25.21,1.42 24.43,1.43 23.66,1.42 22.94,1.43 22.21,1.43 21.53,1.43 20.84,1.44 20.21,1.44 19.58,1.45 18.96,1.45 18.38,1.48 17.8,1.47 17.25,1.49 16.72,1.52 16.19,1.52 15.69,1.55 15.2,1.57 14.73,1.6 14.27,1.63 13.82,1.66 13.4,1.7 12.97,1.75 12.58,1.78 12.18,1.85 11.81,1.91 11.43,1.97 11.08,2.05 10.73,2.15 10.4,2.24 10.09,2.36 9.75,2.49 9.47,2.63 9.16,2.8 8.88,2.98 8.61,3.2 8.33,3.43 8.07,3.7 7.83,4 7.58,4.35 7.34,4.72 7.12,5.14 6.9,5.61 6.67,6.12 6.48,6.67 6.27,7.28 6.08,7.9 5.89,8.55 5.7,9.24 5.53,9.88 5.35,10.55 5.18,11.15 5.03,11.71 4.87,12.21 4.72,12.64 4.57,13.03 4.43,13.39 4.29,13.77 4.29,14.77 5,18.89 5.01,22.03 5.01,28.01 5,46.39 5.01,114.02 5.01,124.53 4.3,116.87 3.8,101.06 3.38,109.55 2.99,32.36 2.65,22.07 2.35,44.11 2.08,48.04 1.83,47.46 1.64,42.27 1.44,41.63 1.28,33.62 1.13,36.64 1,23.9 0.89,33.73 0.79,11.14 0.7,0.57 0.61,0.16 0.55,0.08 0.48,0.03 0.43,0.02"
         style="fill:none;stroke:#ff0000;stroke-width:20.00250053;stroke-linecap:butt;stroke-linejoin:bevel;stroke-miterlimit:10;stroke-dasharray:60, 60;stroke-dashoffset:0;stroke-opacity:1"
         id="path4947"
         inkscape:connector-curvature="0" /><path
         d="m 750,1650.34 85.816,0"
         style="fill:none;stroke:#ff0000;stroke-width:20.00250053;stroke-linecap:square;stroke-linejoin:miter;stroke-miterlimit:10;stroke-dasharray:none;stroke-opacity:1"
         id="path4949"
         inkscape:connector-curvature="0" /><path
         d="m 5126.68,3215.11 85.82,0"
         style="fill:none;stroke:#ff0000;stroke-width:20.00250053;stroke-linecap:square;stroke-linejoin:miter;stroke-miterlimit:10;stroke-dasharray:none;stroke-opacity:1"
         id="path4951"
         inkscape:connector-curvature="0" /><path
         d="m 835.816,555 0,3442.5"
         style="fill:none;stroke:#000000;stroke-width:20.00250053;stroke-linecap:butt;stroke-linejoin:bevel;stroke-miterlimit:10;stroke-dasharray:60, 60;stroke-dashoffset:0;stroke-opacity:1"
         id="path4953"
         inkscape:connector-curvature="0" /><path
         d="m 5126.68,555 0,3442.5"
         style="fill:none;stroke:#000000;stroke-width:20.00250053;stroke-linecap:butt;stroke-linejoin:bevel;stroke-miterlimit:10;stroke-dasharray:60, 60;stroke-dashoffset:0;stroke-opacity:1"
         id="path4955"
         inkscape:connector-curvature="0" /></g></g><g
     inkscape:groupmode="layer"
     id="layer1"
     inkscape:label="ink_ext_XXXXXX 1"><path
       style="fill:#0000ff;fill-rule:evenodd;stroke:#0000ff;stroke-width:6;stroke-linecap:butt;stroke-linejoin:miter;stroke-miterlimit:4;stroke-dasharray:none;stroke-dashoffset:0;stroke-opacity:1;marker-end:url(#Arrow2Mend)"
       d="m 647.18573,651.70596 -87.73047,0"
       id="path13591-7"
       inkscape:connector-curvature="0" /><text
       xml:space="preserve"
       style="font-style:normal;font-weight:normal;font-size:15px;line-height:125%;font-family:sans-serif;letter-spacing:0px;word-spacing:0px;fill:#000000;fill-opacity:1;stroke:none;stroke-width:1px;stroke-linecap:butt;stroke-linejoin:miter;stroke-opacity:1"
       x="349.03613"
       y="619.30096"
       id="text5459"
       sodipodi:linespacing="125%"><tspan
         sodipodi:role="line"
         id="tspan5461"
         x="349.03613"
         y="619.30096"
         style="font-size:22.5px;fill:#000000">Ambipolar Tunneling</tspan></text>
</g></svg>